<?xml version="1.0" encoding="UTF-8"?>
<!DOCTYPE svg PUBLIC "-//W3C//DTD SVG 1.1//EN" "http://www.w3.org/Graphics/SVG/1.1/DTD/svg11.dtd">
<svg xmlns="http://www.w3.org/2000/svg" version="1.1" width="441px" height="76px" style="shape-rendering:geometricPrecision; text-rendering:geometricPrecision; image-rendering:optimizeQuality; fill-rule:evenodd; clip-rule:evenodd" xmlns:xlink="http://www.w3.org/1999/xlink">
<g><path style="opacity:0.911" fill="#fefffe" d="M 289.5,2.5 C 294.541,3.78739 299.541,5.28739 304.5,7C 306.631,8.85658 307.131,11.0232 306,13.5C 311.914,19.057 316.581,25.3903 320,32.5C 318.857,24.5206 318.024,16.6873 317.5,9C 319.697,6.38637 322.197,4.2197 325,2.5C 328.227,2.95342 331.227,3.95342 334,5.5C 334.161,13.5409 335.328,21.5409 337.5,29.5C 336.217,36.1097 335.384,42.7763 335,49.5C 333.931,56.1166 332.098,62.4499 329.5,68.5C 326.674,69.8706 325.174,68.8706 325,65.5C 324.667,66.1667 324.333,66.8333 324,67.5C 318.274,55.7199 311.274,44.7199 303,34.5C 301.92,36.5535 301.086,38.7202 300.5,41C 301.779,51.7653 298.779,61.2653 291.5,69.5C 290.522,69.0233 289.689,68.3567 289,67.5C 288.012,64.5755 287.346,61.5755 287,58.5C 286.572,63.498 285.739,63.6647 284.5,59C 285.097,57.3718 284.763,55.7051 283.5,54C 283.81,49.403 283.81,45.0697 283.5,41C 284.974,38.0097 285.974,34.843 286.5,31.5C 285.786,23.3587 285.12,15.192 284.5,7C 284.585,5.8926 284.919,4.8926 285.5,4C 287.058,3.78997 288.391,3.28997 289.5,2.5 Z"/></g>
<g><path style="opacity:0.903" fill="#fefffe" d="M 48.5,3.5 C 51.7378,5.67465 55.4045,7.17465 59.5,8C 62.1667,9.33333 64.1667,11.3333 65.5,14C 64.4815,19.388 62.4815,24.388 59.5,29C 63.3119,42.3411 62.9785,55.5078 58.5,68.5C 58.1667,70.8333 57.1667,71.1667 55.5,69.5C 53.1563,65.8133 51.6563,61.8133 51,57.5C 50.6667,58.8333 50.3333,60.1667 50,61.5C 46.5852,52.3355 44.9186,43.0022 45,33.5C 42.3756,37.248 39.8756,41.0813 37.5,45C 35.3013,46.5834 32.968,46.7501 30.5,45.5C 30.6751,42.6711 29.3418,41.0045 26.5,40.5C 24.144,37.9783 21.9773,35.3116 20,32.5C 19.6244,40.3828 18.7911,48.2161 17.5,56C 17.5589,57.4357 17.8922,58.769 18.5,60C 16.1023,61.0181 13.769,62.1847 11.5,63.5C 10.914,63.2907 10.414,62.9574 10,62.5C 9.06952,65.3616 7.40285,67.695 5,69.5C 3.95369,68.228 3.45369,66.728 3.5,65C 4.3689,62.5624 4.3689,60.229 3.5,58C 3.97213,54.6353 4.97213,51.1353 6.5,47.5C 6.59702,42.9257 5.26369,38.5924 2.5,34.5C 3.16667,32.8333 3.83333,31.1667 4.5,29.5C 4.41259,23.7462 4.24593,17.7462 4,11.5C 7.88944,4.07674 13.3894,2.57674 20.5,7C 22.1341,7.49351 23.8008,7.66018 25.5,7.5C 26.0804,11.1419 26.5804,14.8086 27,18.5C 29.3922,21.228 31.3922,24.228 33,27.5C 35.7851,22.3811 39.6184,18.2144 44.5,15C 43.3895,12.2628 43.2228,9.42945 44,6.5C 45.4087,5.21886 46.9087,4.21886 48.5,3.5 Z"/></g>
<g><path style="opacity:0.856" fill="#fefffe" d="M 199.5,14.5 C 207.783,16.7406 208.616,20.7406 202,26.5C 199.651,31.1978 197.318,35.8644 195,40.5C 188.613,47.5943 182.947,55.261 178,63.5C 175.175,65.0059 173.342,64.1726 172.5,61C 174.68,53.9727 177.68,47.3061 181.5,41C 177.52,40.1859 174.52,38.0192 172.5,34.5C 170.333,30.1667 168.167,25.8333 166,21.5C 164.925,18.4691 165.925,16.4691 169,15.5C 172.411,16.2931 175.911,16.7931 179.5,17C 180.78,19.1317 180.78,21.2984 179.5,23.5C 182.109,26.3832 183.942,29.7166 185,33.5C 188.444,25.8659 193.278,19.5325 199.5,14.5 Z"/></g>
<g><path style="opacity:0.871" fill="#fefffe" d="M 212.5,14.5 C 217.037,14.8327 221.204,16.166 225,18.5C 225.628,25.4226 228.628,31.0892 234,35.5C 234.885,38 236.052,40.3333 237.5,42.5C 238.221,40.314 238.887,38.1474 239.5,36C 238.793,30.0451 238.126,24.0451 237.5,18C 237.666,15.836 238.833,14.6694 241,14.5C 244.346,14.9609 247.512,15.9609 250.5,17.5C 250.833,18.3333 251.167,19.1667 251.5,20C 250.786,22.7642 249.786,25.4309 248.5,28C 250.615,32.4549 250.615,36.7883 248.5,41C 248.833,41.3333 249.167,41.6667 249.5,42C 248.697,46.4145 248.197,50.9145 248,55.5C 247.308,56.0253 246.808,56.6919 246.5,57.5C 248.64,60.8073 250.974,63.974 253.5,67C 252.5,67.5 251.5,68 250.5,68.5C 248.622,67.3578 246.788,66.3578 245,65.5C 244.586,65.9574 244.086,66.2907 243.5,66.5C 234.838,60.6555 229.004,52.6555 226,42.5C 224.981,41.3128 223.814,40.3128 222.5,39.5C 221.285,44.7789 220.452,50.1123 220,55.5C 218.423,58.7511 216.423,61.7511 214,64.5C 211.67,60.0133 210.504,55.18 210.5,50C 210.883,43.836 211.217,37.6694 211.5,31.5C 211.713,26.8122 211.046,22.3122 209.5,18C 210.365,16.6412 211.365,15.4745 212.5,14.5 Z"/></g>
<g><path style="opacity:0.856" fill="#fefffe" d="M 430.5,14.5 C 438.783,16.7406 439.616,20.7406 433,26.5C 430.651,31.1978 428.318,35.8644 426,40.5C 419.613,47.5943 413.947,55.261 409,63.5C 406.175,65.0059 404.342,64.1726 403.5,61C 405.68,53.9727 408.68,47.3061 412.5,41C 408.52,40.1859 405.52,38.0192 403.5,34.5C 401.333,30.1667 399.167,25.8333 397,21.5C 395.925,18.4691 396.925,16.4691 400,15.5C 403.411,16.2931 406.911,16.7931 410.5,17C 411.78,19.1317 411.78,21.2984 410.5,23.5C 413.109,26.3832 414.942,29.7166 416,33.5C 419.444,25.8659 424.278,19.5325 430.5,14.5 Z"/></g>
<g><path style="opacity:0.871" fill="#fefffe" d="M 96.5,15.5 C 101.031,15.6338 104.864,17.3005 108,20.5C 110.727,26.9544 113.727,33.2878 117,39.5C 118.579,41.0412 120.413,42.2078 122.5,43C 121.643,43.6891 120.977,44.5224 120.5,45.5C 122.229,47.8511 122.896,50.5178 122.5,53.5C 125.579,53.2601 128.579,53.5934 131.5,54.5C 134.109,53.7695 136.776,53.2695 139.5,53C 138.833,52.6667 138.167,52.3333 137.5,52C 142.867,51.4089 147.867,49.7422 152.5,47C 147.637,44.9344 142.637,43.2678 137.5,42C 126.587,37.1862 124.587,29.8529 131.5,20C 141.044,15.1915 150.377,15.3581 159.5,20.5C 162.874,24.4277 162.207,25.761 157.5,24.5C 153.678,26.7949 149.678,28.7949 145.5,30.5C 143.249,29.1353 141.249,29.4686 139.5,31.5C 145.34,33.6302 151.34,35.4635 157.5,37C 163.109,40.2769 164.942,45.1103 163,51.5C 161.062,54.1059 158.562,55.9392 155.5,57C 147.579,58.5675 139.579,58.9009 131.5,58C 128.165,57.2474 124.998,56.0807 122,54.5C 120.136,57.2072 117.636,58.0405 114.5,57C 112.288,54.0788 110.455,50.9121 109,47.5C 103.281,46.3559 97.6146,46.6892 92,48.5C 91.6667,48.1667 91.3333,47.8333 91,47.5C 89.8289,48.8932 88.3289,49.7265 86.5,50C 84.2983,55.0351 80.6316,58.5351 75.5,60.5C 73.7336,60.5658 72.7336,59.7324 72.5,58C 72.9026,55.3592 73.9026,53.0259 75.5,51C 69.4571,49.3026 67.2905,45.4692 69,39.5C 72.8515,37.7703 77.0182,36.9369 81.5,37C 86.72,29.9534 91.72,22.7868 96.5,15.5 Z M 98.5,30.5 C 101.068,31.5737 102.735,33.5737 103.5,36.5C 101.363,37.0798 99.53,38.0798 98,39.5C 96.5806,38.5399 95.0806,37.7065 93.5,37C 95.7044,35.2355 97.3711,33.0688 98.5,30.5 Z"/></g>
<g><path style="opacity:0.878" fill="#fefffe" d="M 369.5,15.5 C 374.031,15.6338 377.864,17.3005 381,20.5C 383.727,26.9544 386.727,33.2878 390,39.5C 391.579,41.0412 393.413,42.2078 395.5,43C 393.216,44.3629 393.049,45.8629 395,47.5C 396.824,54.3276 394.324,57.4942 387.5,57C 385.248,53.8324 383.248,50.4991 381.5,47C 375.873,46.4035 370.373,46.9035 365,48.5C 364.667,48.1667 364.333,47.8333 364,47.5C 362.829,48.8932 361.329,49.7265 359.5,50C 357.959,53.5497 355.626,56.5497 352.5,59C 349.584,61.3434 347.25,61.0101 345.5,58C 345.903,55.3592 346.903,53.0259 348.5,51C 341.821,49.0576 339.821,44.891 342.5,38.5C 346.459,37.6735 350.459,37.1735 354.5,37C 359.72,29.9534 364.72,22.7868 369.5,15.5 Z M 371.5,30.5 C 374.068,31.5737 375.735,33.5737 376.5,36.5C 374.363,37.0798 372.53,38.0798 371,39.5C 369.581,38.5399 368.081,37.7065 366.5,37C 368.704,35.2355 370.371,33.0688 371.5,30.5 Z"/></g>
</svg>
