<?xml version="1.0" encoding="UTF-8"?>
<!DOCTYPE svg PUBLIC "-//W3C//DTD SVG 1.1//EN" "http://www.w3.org/Graphics/SVG/1.1/DTD/svg11.dtd">
<svg xmlns="http://www.w3.org/2000/svg" version="1.1" width="1222px" height="100px" style="shape-rendering:geometricPrecision; text-rendering:geometricPrecision; image-rendering:optimizeQuality; fill-rule:evenodd; clip-rule:evenodd" xmlns:xlink="http://www.w3.org/1999/xlink">
<g><path style="opacity:1" fill="#e4e4e4" d="M 286.5,-0.5 C 288.833,-0.5 291.167,-0.5 293.5,-0.5C 295.667,0.268525 297.834,1.26852 300,2.5C 300.667,4.16667 300.667,5.83333 300,7.5C 294.826,8.57357 289.659,9.74023 284.5,11C 280.363,13.9387 278.03,17.9387 277.5,23C 281.837,34.8494 286.337,46.6827 291,58.5C 294.787,70.8585 291.953,81.3585 282.5,90C 275.701,92.2595 269.535,91.0928 264,86.5C 263.231,83.9009 263.398,81.4009 264.5,79C 268.387,79.3459 272.22,80.1793 276,81.5C 281.436,80.7241 283.936,77.5574 283.5,72C 279.94,59.7036 275.106,47.8703 269,36.5C 265.792,30.4794 265.792,24.4794 269,18.5C 272.66,10.013 278.493,3.67962 286.5,-0.5 Z"/></g>
<g><path style="opacity:1" fill="#e6e6e6" d="M 170.5,2.5 C 176.938,0.756204 180.772,3.08954 182,9.5C 202.713,36.0434 225.88,60.0434 251.5,81.5C 249.752,86.4084 246.252,88.7417 241,88.5C 234.599,80.0933 227.433,72.2599 219.5,65C 205.126,64.1093 190.792,64.4426 176.5,66C 175,67.5 173.5,69 172,70.5C 168.679,75.4736 166.179,80.807 164.5,86.5C 161.482,86.6646 158.482,86.498 155.5,86C 153.717,84.9335 153.217,83.4335 154,81.5C 166.593,66.1504 176.76,49.3171 184.5,31C 184.375,29.3732 183.875,27.8732 183,26.5C 176.652,20.3189 170.485,13.9855 164.5,7.5C 166.162,5.34834 168.162,3.68167 170.5,2.5 Z M 191.5,36.5 C 198.479,42.8123 205.146,49.479 211.5,56.5C 201.188,57.4986 190.855,57.8319 180.5,57.5C 183.689,50.2944 187.356,43.2944 191.5,36.5 Z"/></g>
<g><path style="opacity:1" fill="#e6e6e6" d="M 665.5,2.5 C 671.938,0.756204 675.772,3.08954 677,9.5C 697.713,36.0434 720.88,60.0434 746.5,81.5C 744.752,86.4084 741.252,88.7417 736,88.5C 729.599,80.0933 722.433,72.2599 714.5,65C 700.126,64.1093 685.792,64.4426 671.5,66C 670,67.5 668.5,69 667,70.5C 663.679,75.4736 661.179,80.807 659.5,86.5C 656.482,86.6646 653.482,86.498 650.5,86C 648.717,84.9335 648.217,83.4335 649,81.5C 661.593,66.1504 671.76,49.3171 679.5,31C 679.375,29.3732 678.875,27.8732 678,26.5C 671.652,20.3189 665.485,13.9855 659.5,7.5C 661.162,5.34834 663.162,3.68167 665.5,2.5 Z M 686.5,36.5 C 693.479,42.8123 700.146,49.479 706.5,56.5C 696.188,57.4986 685.855,57.8319 675.5,57.5C 678.689,50.2944 682.356,43.2944 686.5,36.5 Z"/></g>
<g><path style="opacity:1" fill="#e7e7e7" d="M 313.5,4.5 C 315.288,4.21478 316.955,4.54811 318.5,5.5C 319.228,9.30204 320.394,12.9687 322,16.5C 330.333,29.1667 338.667,41.8333 347,54.5C 353.255,42.9899 359.255,31.3233 365,19.5C 366.47,15.6224 367.303,11.6224 367.5,7.5C 371.463,7.08892 375.13,7.92225 378.5,10C 380.211,11.1332 380.711,12.6332 380,14.5C 370.829,28.837 362.163,43.5037 354,58.5C 349.551,67.1788 345.885,76.1788 343,85.5C 341.148,90.5542 338.315,94.8875 334.5,98.5C 330.276,96.9428 326.943,94.2761 324.5,90.5C 335.96,83.9102 340.793,73.9102 339,60.5C 329.498,44.666 318.832,29.666 307,15.5C 306.333,13.8333 306.333,12.1667 307,10.5C 309.063,8.26589 311.229,6.26589 313.5,4.5 Z"/></g>
<g><path style="opacity:1" fill="#e8e8e8" d="M 453.5,61.5 C 453.56,62.0431 453.893,62.3764 454.5,62.5C 455.386,61.675 455.719,60.675 455.5,59.5C 455.916,52.5086 456.25,45.5086 456.5,38.5C 456.077,29.4649 455.577,20.4649 455,11.5C 458.631,9.65013 462.464,9.15013 466.5,10C 467.167,11.3333 467.833,12.6667 468.5,14C 466.746,20.3551 465.579,26.8551 465,33.5C 463.91,48.4786 463.243,63.4786 463,78.5C 460.603,81.4 457.77,83.7333 454.5,85.5C 452.215,79.596 449.381,73.9293 446,68.5C 434.295,56.297 422.795,43.9636 411.5,31.5C 411.217,30.7109 410.717,30.0442 410,29.5C 409.51,30.7932 409.343,32.1266 409.5,33.5C 409.667,50.5033 409.5,67.5033 409,84.5C 408.5,85.6667 407.667,86.5 406.5,87C 402.886,87.9358 399.22,88.4358 395.5,88.5C 396.94,83.5835 398.44,78.5835 400,73.5C 400.728,58.325 401.561,43.1583 402.5,28C 402.965,20.1277 399.298,15.461 391.5,14C 390.978,13.4387 390.645,12.772 390.5,12C 392.805,8.00611 396.138,5.17277 400.5,3.5C 418.132,22.8017 435.799,42.135 453.5,61.5 Z"/></g>
<g><path style="opacity:1" fill="#e7e7e7" d="M 755.5,4.5 C 757.288,4.21478 758.955,4.54811 760.5,5.5C 761.228,9.30204 762.394,12.9687 764,16.5C 772.333,29.1667 780.667,41.8333 789,54.5C 795.255,42.9899 801.255,31.3233 807,19.5C 808.47,15.6224 809.303,11.6224 809.5,7.5C 813.463,7.08892 817.13,7.92225 820.5,10C 822.211,11.1332 822.711,12.6332 822,14.5C 812.829,28.837 804.163,43.5037 796,58.5C 791.551,67.1788 787.885,76.1788 785,85.5C 783.148,90.5542 780.315,94.8875 776.5,98.5C 772.276,96.9428 768.943,94.2761 766.5,90.5C 777.96,83.9102 782.793,73.9102 781,60.5C 771.498,44.666 760.832,29.666 749,15.5C 748.333,13.8333 748.333,12.1667 749,10.5C 751.063,8.26589 753.229,6.26589 755.5,4.5 Z"/></g>
<g><path style="opacity:1" fill="#e7e7e7" d="M 1178.5,4.5 C 1192.26,5.5328 1205.26,9.19947 1217.5,15.5C 1218.56,18.1029 1218.73,20.7695 1218,23.5C 1214.05,29.1233 1209.71,34.4566 1205,39.5C 1203.63,41.6954 1203.29,44.0288 1204,46.5C 1208.03,50.8679 1212.37,54.8679 1217,58.5C 1219.35,64.7285 1218.35,70.3952 1214,75.5C 1204.36,85.2348 1192.86,91.0682 1179.5,93C 1177.76,91.3804 1175.93,89.8804 1174,88.5C 1173.32,87.2161 1173.48,86.0495 1174.5,85C 1186.24,85.0939 1196.07,80.9272 1204,72.5C 1207.33,68.1667 1207.33,63.8333 1204,59.5C 1198.8,55.2982 1193.97,50.7982 1189.5,46C 1194.78,39.944 1199.95,33.7773 1205,27.5C 1206.3,25.6354 1206.63,23.6354 1206,21.5C 1196.52,16.6105 1186.69,15.2772 1176.5,17.5C 1176.15,12.9691 1176.82,8.63577 1178.5,4.5 Z"/></g>
<g><path style="opacity:1" fill="#e7e7e7" d="M 9.5,4.5 C 13.548,4.44112 16.7146,6.10779 19,9.5C 29.8857,27.73 43.0523,44.23 58.5,59C 63.6528,64.1596 69.8195,67.3263 77,68.5C 103.981,61.685 120.815,44.685 127.5,17.5C 132.77,15.1425 135.437,16.8092 135.5,22.5C 132.884,35.7252 132.05,49.0585 133,62.5C 134.723,67.6127 136.723,72.6127 139,77.5C 139.961,81.2256 138.461,83.3922 134.5,84C 132.559,84.7429 130.726,84.5762 129,83.5C 126.879,72.489 124.713,61.489 122.5,50.5C 111.76,62.2064 98.7604,70.373 83.5,75C 71.8115,77.4347 61.4781,74.7681 52.5,67C 44.3023,59.1366 36.469,50.97 29,42.5C 24.3371,57.1558 19.6705,71.8224 15,86.5C 10.5186,89.4201 6.51855,88.7535 3,84.5C 2.33333,83.1667 2.33333,81.8333 3,80.5C 16.0163,64.1379 20.3497,45.8045 16,25.5C 12.1514,19.6563 8.31809,13.823 4.5,8C 4.6448,7.22797 4.97814,6.5613 5.5,6C 7.05814,5.78997 8.39147,5.28997 9.5,4.5 Z"/></g>
<g><path style="opacity:1" fill="#e5e5e5" d="M 967.5,7.5 C 979.057,5.18775 988.89,8.18775 997,16.5C 1002.01,27.5281 1000.67,37.8614 993,47.5C 982.833,57 972.667,66.5 962.5,76C 975.495,76.0004 988.495,75.667 1001.5,75C 1003.61,74.4427 1005.61,73.6094 1007.5,72.5C 1008.09,72.7093 1008.59,73.0426 1009,73.5C 1009.81,77.6645 1009.31,81.6645 1007.5,85.5C 989.658,84.2506 971.825,84.2506 954,85.5C 953.333,81.5 953.333,77.5 954,73.5C 962.97,65.5308 971.637,57.1975 980,48.5C 984.792,42.2491 987.958,35.2491 989.5,27.5C 988.901,22.1074 986.234,18.274 981.5,16C 975.574,14.8898 969.908,15.5564 964.5,18C 963.023,22.739 960.023,24.239 955.5,22.5C 953.521,19.4069 952.688,16.0736 953,12.5C 957.698,10.1017 962.532,8.43503 967.5,7.5 Z"/></g>
<g><path style="opacity:1" fill="#e7e7e7" d="M 1049.5,7.5 C 1065.18,5.92567 1075.68,12.5923 1081,27.5C 1087.77,48.2522 1083.6,66.4188 1068.5,82C 1054.55,90.145 1043.05,87.645 1034,74.5C 1026.02,58.527 1025.35,42.1936 1032,25.5C 1036.02,17.6446 1041.86,11.6446 1049.5,7.5 Z M 1054.5,15.5 C 1061.45,16.2774 1066.29,19.944 1069,26.5C 1075.48,42.1431 1074.81,57.4765 1067,72.5C 1061.14,78.0038 1054.64,78.8372 1047.5,75C 1041,66.848 1037.67,57.5147 1037.5,47C 1037.24,35.7626 1040.91,26.0959 1048.5,18C 1050.61,17.1553 1052.61,16.322 1054.5,15.5 Z"/></g>
<g><path style="opacity:1" fill="#e5e5e5" d="M 1119.5,7.5 C 1131.06,5.18775 1140.89,8.18775 1149,16.5C 1154.01,27.5281 1152.67,37.8614 1145,47.5C 1134.83,57 1124.67,66.5 1114.5,76C 1127.49,76.0004 1140.49,75.667 1153.5,75C 1155.61,74.4427 1157.61,73.6094 1159.5,72.5C 1160.09,72.7093 1160.59,73.0426 1161,73.5C 1161.81,77.6645 1161.31,81.6645 1159.5,85.5C 1141.66,84.2506 1123.82,84.2506 1106,85.5C 1105.33,81.5 1105.33,77.5 1106,73.5C 1114.97,65.5308 1123.64,57.1975 1132,48.5C 1136.79,42.2491 1139.96,35.2491 1141.5,27.5C 1140.9,22.1074 1138.23,18.274 1133.5,16C 1127.57,14.8898 1121.91,15.5564 1116.5,18C 1115.02,22.739 1112.02,24.239 1107.5,22.5C 1105.52,19.4069 1104.69,16.0736 1105,12.5C 1109.7,10.1017 1114.53,8.43503 1119.5,7.5 Z"/></g>
<g><path style="opacity:1" fill="#e6e6e6" d="M 554.5,39.5 C 554.44,38.9569 554.107,38.6236 553.5,38.5C 552.526,40.7427 552.192,43.076 552.5,45.5C 552.381,57.9341 551.214,70.2675 549,82.5C 547.309,86.2127 544.475,87.3794 540.5,86C 538.59,85.5917 537.59,84.4251 537.5,82.5C 543.464,67.7141 545.631,52.3807 544,36.5C 540.243,28.0681 534.91,20.7348 528,14.5C 526.529,9.96669 528.196,7.63336 533,7.5C 534.627,7.62515 536.127,8.12515 537.5,9C 561.844,34.4043 589.344,55.5709 620,72.5C 621.829,54.8473 621.829,37.1807 620,19.5C 618.815,17.1304 617.649,14.7971 616.5,12.5C 616.59,10.5749 617.59,9.40826 619.5,9C 622.738,7.63227 626.072,7.29894 629.5,8C 630.658,9.00856 631.325,10.3419 631.5,12C 630.075,24.2885 629.408,36.6218 629.5,49C 629.869,60.5102 630.035,72.0102 630,83.5C 627.24,87.2072 623.74,88.2072 619.5,86.5C 618.132,82.6303 615.798,79.4636 612.5,77C 599.833,69.6667 587.167,62.3333 574.5,55C 567.362,50.352 560.695,45.1853 554.5,39.5 Z"/></g>
<g><path style="opacity:0.104" fill="#303030" d="M 411.5,31.5 C 410.833,32.1667 410.167,32.8333 409.5,33.5C 409.343,32.1266 409.51,30.7932 410,29.5C 410.717,30.0442 411.217,30.7109 411.5,31.5 Z"/></g>
<g><path style="opacity:0.384" fill="#4b4b4b" d="M 554.5,39.5 C 553.833,41.5 553.167,43.5 552.5,45.5C 552.192,43.076 552.526,40.7427 553.5,38.5C 554.107,38.6236 554.44,38.9569 554.5,39.5 Z"/></g>
<g><path style="opacity:1" fill="#e5e5e5" d="M 874.5,43.5 C 881.928,45.4922 889.428,45.8255 897,44.5C 900.16,44.2369 901.993,45.5702 902.5,48.5C 902.069,50.7661 900.736,52.2661 898.5,53C 889.167,53.6667 879.833,53.6667 870.5,53C 869.757,49.0859 871.09,45.9192 874.5,43.5 Z"/></g>
<g><path style="opacity:0.482" fill="#6c6c6c" d="M 455.5,59.5 C 455.719,60.675 455.386,61.675 454.5,62.5C 453.893,62.3764 453.56,62.0431 453.5,61.5C 454.167,60.8333 454.833,60.1667 455.5,59.5 Z"/></g>
</svg>
