<?xml version="1.0" encoding="UTF-8"?>
<!DOCTYPE svg PUBLIC "-//W3C//DTD SVG 1.1//EN" "http://www.w3.org/Graphics/SVG/1.1/DTD/svg11.dtd">
<svg xmlns="http://www.w3.org/2000/svg" version="1.1" width="945px" height="801px" style="shape-rendering:geometricPrecision; text-rendering:geometricPrecision; image-rendering:optimizeQuality; fill-rule:evenodd; clip-rule:evenodd" xmlns:xlink="http://www.w3.org/1999/xlink">
<g><path style="opacity:0.035" fill="#000000" d="M 944.5,125.5 C 944.5,127.5 944.5,129.5 944.5,131.5C 941.808,146.887 935.308,160.554 925,172.5C 907.032,192.802 888.032,212.135 868,230.5C 867,232.5 866,234.5 865,236.5C 861.077,372.636 817.41,493.969 734,600.5C 639.767,713.052 519.267,778.219 372.5,796C 352.051,798.079 331.718,799.579 311.5,800.5C 306.5,800.5 301.5,800.5 296.5,800.5C 202.868,798.349 114.868,774.849 32.5,730C 18.1901,723.024 8.02347,712.191 2,697.5C -2.58844,677.894 4.2449,664.061 22.5,656C 28.9567,653.642 35.6233,652.309 42.5,652C 89.8176,653.479 135.818,646.479 180.5,631C 184.953,629.274 189.286,627.274 193.5,625C 198.861,621.015 198.528,617.349 192.5,614C 150.624,590.458 119.457,556.958 99,513.5C 92.7748,497.96 91.9414,482.127 96.5,466C 96.4347,463.409 95.9347,460.909 95,458.5C 80.5628,443.6 67.5628,427.6 56,410.5C 34.6028,376.576 24.2694,339.576 25,299.5C 27.0242,286.438 33.3576,276.105 44,268.5C 46.9205,264.057 47.2538,259.39 45,254.5C 19.1768,195.71 17.8435,136.377 41,76.5C 51.7417,48.3799 71.5751,38.2132 100.5,46C 105.492,48.1609 110.159,50.8276 114.5,54C 162.323,108.059 218.656,150.726 283.5,182C 325.573,201.524 369.573,214.69 415.5,221.5C 418.953,221.408 421.786,220.075 424,217.5C 427.251,146.831 456.084,89.3307 510.5,45C 579.668,-3.71546 653.668,-12.3821 732.5,19C 749.324,26.5711 764.991,35.9045 779.5,47C 786.294,51.1659 793.627,52.4993 801.5,51C 822.182,45.1061 842.182,37.4394 861.5,28C 874.524,22.2544 887.858,21.2544 901.5,25C 913.244,29.9698 920.078,38.8032 922,51.5C 923.013,62.4422 921.68,73.1089 918,83.5C 917.333,86.5 917.333,89.5 918,92.5C 924.177,96.5884 930.177,100.922 936,105.5C 940.51,111.552 943.343,118.218 944.5,125.5 Z"/></g>
<g><path style="opacity:1" fill="#fefefe" d="M 627.5,33.5 C 687.052,30.2295 737.719,49.5628 779.5,91.5C 820.808,83.1746 859.474,68.1746 895.5,46.5C 886.148,79.3179 868.481,107.151 842.5,130C 834.858,136.487 826.858,142.487 818.5,148C 853.39,144.068 886.89,134.902 919,120.5C 919.5,120.833 920,121.167 920.5,121.5C 895.984,158.851 865.484,190.518 829,216.5C 831.74,365.995 783.407,495.995 684,606.5C 587.804,706.5 469.97,759.667 330.5,766C 217.583,771.107 113.583,743.44 18.5,683C 119.659,693.156 210.659,667.823 291.5,607C 222.752,603.063 170.585,571.896 135,513.5C 128.857,502.063 123.69,490.23 119.5,478C 146.983,482.144 174.316,481.144 201.5,475C 130.844,457.345 84.3443,413.845 62,344.5C 56.8751,326.835 54.8751,308.835 56,290.5C 80.649,304.62 107.149,312.12 135.5,313C 75.1753,267.087 49.6753,206.254 59,130.5C 62.7634,108.542 70.0967,87.8752 81,68.5C 81.7175,67.5494 82.5509,67.3828 83.5,68C 164.501,165.37 267.501,226.703 392.5,252C 415.719,256.488 439.053,258.988 462.5,259.5C 448.925,189.733 467.591,130.233 518.5,81C 549.794,53.6883 586.127,37.855 627.5,33.5 Z"/></g>
</svg>
